# xmcd
#
# Track frame offsets:
#	150
#	14108
#	29869
#	49719
#	69932
#	91987
#	111672
#	125630
#	141391
#	161241
#	181454
#	203509
#
# Disc length: 2975 seconds
#
# Revision: 1
# Processed by: cddbd v1.5.2PL0 Copyright (c) Steve Scherf et al.
# Submitted via: audiograbber 1.83.01
#
DISCID=b90b9d0c
DTITLE=Jamey Johnson - CDG20654
DYEAR=1900
DGENRE=Karaoke
TTITLE0=The Dollar /w Vocals
TTITLE1=Rebelicious /w Vocals
TTITLE2=In Color /w Vocals
TTITLE3=That Lonesome Song /w Vocals
TTITLE4=High Cost Of Living /w Vocals
TTITLE5=My Way to You /w Vocals
TTITLE6=The Dollar
TTITLE7=Rebelicious
TTITLE8=In Color
TTITLE9=That Lonesome Song
TTITLE10=High Cost of Living
TTITLE11=My Way to You
EXTD=
EXTT0=
EXTT1=
EXTT2=
EXTT3=
EXTT4=
EXTT5=
EXTT6=
EXTT7=
EXTT8=
EXTT9=
EXTT10=
EXTT11=
PLAYORDER=
